<?xml version="1.0" encoding="UTF-8"?><svg id="a" xmlns="http://www.w3.org/2000/svg" viewBox="0 0 300.11 68.31"><defs><style>.b{fill:#080d14;}</style></defs><path class="b" d="M267.21,68.31c-18.75,0-34.16-15.4-34.16-34.16,0-13.39-10.72-24.11-24.11-24.11s-24.11,10.72-24.11,24.11c0,18.75-15.4,34.16-34.16,34.16s-34.16-15.4-34.16-34.16c0-13.39-10.72-24.11-24.11-24.11s-24.11,10.72-24.11,24.11c0,18.75-15.4,34.16-34.16,34.16S0,52.91,0,34.16c0-2.68,2.01-4.69,4.69-4.69s4.69,2.01,4.69,4.69c0,13.39,10.72,24.11,24.11,24.11s24.11-10.72,24.11-24.11C57.6,15.4,73,0,91.75,0s34.16,15.4,34.16,34.16c0,13.39,10.72,24.11,24.11,24.11s24.11-10.72,24.11-24.11c0-18.75,15.4-34.16,34.16-34.16s34.16,15.4,34.16,34.16c0,13.39,10.72,24.11,24.11,24.11s24.11-10.72,24.11-24.11c0-2.68,2.01-4.69,4.69-4.69s4.69,2.01,4.69,4.69c1.34,18.75-14.06,34.16-32.82,34.16Z"/></svg>